<?xml version="1.0" encoding="UTF-8" standalone="no"?>
<svg
   viewBox="0 0 16 16"
   x="0px"
   y="0px"
   version="1.1"
   id="svg2"
   sodipodi:docname="breakfree-wb.svg"
   width="16"
   height="16"
   inkscape:version="1.4.2 (ebf0e940d0, 2025-05-08)"
   inkscape:export-filename="breakfree-wb-512.png"
   inkscape:export-xdpi="3072"
   inkscape:export-ydpi="3072"
   xmlns:inkscape="http://www.inkscape.org/namespaces/inkscape"
   xmlns:sodipodi="http://sodipodi.sourceforge.net/DTD/sodipodi-0.dtd"
   xmlns="http://www.w3.org/2000/svg"
   xmlns:svg="http://www.w3.org/2000/svg"
   xmlns:rdf="http://www.w3.org/1999/02/22-rdf-syntax-ns#"
   xmlns:cc="http://creativecommons.org/ns#"
   xmlns:dc="http://purl.org/dc/elements/1.1/">
  <defs
     id="defs2" />
  <sodipodi:namedview
     id="namedview2"
     pagecolor="#ffffff"
     bordercolor="#000000"
     borderopacity="0.25"
     inkscape:showpageshadow="2"
     inkscape:pageopacity="0.0"
     inkscape:pagecheckerboard="0"
     inkscape:deskcolor="#d1d1d1"
     inkscape:zoom="29.266667"
     inkscape:cx="-2.5113895"
     inkscape:cy="11.514806"
     inkscape:window-width="1920"
     inkscape:window-height="1131"
     inkscape:window-x="0"
     inkscape:window-y="0"
     inkscape:window-maximized="1"
     inkscape:current-layer="svg2" />
  <title
     id="title1">_</title>
  <g
     id="g1"
     transform="translate(-4,-4)" />
  <metadata
     id="metadata2">
    <rdf:RDF>
      <cc:Work
         rdf:about="">
        <dc:title>_</dc:title>
      </cc:Work>
    </rdf:RDF>
  </metadata>
  <path
     style="fill:#ffffff;stroke-width:0;fill-opacity:1;stroke-dasharray:none"
     d="M 5.6642795,11.921631 C 5.4565928,11.845118 5.2007935,11.601209 5.1042986,11.38768 L 5.022779,11.207289 V 7.9954442 c 0,-3.193556 4.097e-4,-3.2127306 0.071947,-3.3673396 C 5.4551428,3.849162 6.4792013,3.8183069 6.878041,4.574373 l 0.092346,0.1750575 v 3.2460137 3.2460138 l -0.077444,0.15717 c -0.094546,0.191878 -0.2861777,0.389409 -0.4692532,0.483698 -0.1800993,0.09276 -0.5608351,0.112461 -0.7594107,0.0393 z"
     id="path5" />
  <path
     style="fill:#ffffff;stroke-width:0;fill-opacity:1;stroke-dasharray:none"
     d="M 9.5708688,11.876462 C 9.4423056,11.806039 9.2127522,11.559953 9.1148606,11.387612 L 9.0375854,11.251567 V 8.0079048 4.764243 L 9.1195183,4.6030782 C 9.2271825,4.391299 9.4960628,4.1424941 9.6736681,4.090303 9.8782782,4.0301762 10.227115,4.039788 10.376398,4.109666 c 0.158487,0.074186 0.440361,0.3385918 0.50202,0.4709095 0.086,0.1845429 0.108312,1.2184726 0.08621,3.9943221 l -0.02175,2.7320734 -0.08135,0.128865 c -0.04474,0.07088 -0.08182,0.140703 -0.0824,0.155171 -0.0017,0.04234 -0.28222,0.241759 -0.422577,0.300404 -0.169068,0.07064 -0.6459943,0.06157 -0.7856802,-0.01495 z"
     id="path8" />
  <path
     style="fill:#000000;stroke-width:0;stroke-dasharray:none;fill-opacity:1"
     d="m 4.3052392,15.937962 c -1.2559661,-0.01484 -1.9532681,-0.0357 -2.0293521,-0.06073 -0.063752,-0.02097 -0.1290993,-0.02998 -0.1452164,-0.02001 -0.016117,0.01 -0.029304,1.82e-4 -0.029304,-0.02173 0,-0.02191 -0.02207,-0.03137 -0.049045,-0.02102 -0.026975,0.01035 -0.053883,0.0082 -0.059795,-0.0049 -0.00591,-0.01304 -0.09467,-0.06215 -0.1972381,-0.109128 C 1.0261209,15.348137 0.47528569,14.713921 0.15034021,13.806511 L 0.05159036,13.530752 0.05142161,7.9951633 0.05125285,2.4595748 0.14875304,2.1865072 C 0.29526803,1.7761645 0.34048046,1.68033 0.51437487,1.4115167 0.91019576,0.79964019 1.4730916,0.38482801 2.2722096,0.11612382 2.4518815,0.05570895 2.7003766,0.05289624 7.9291438,0.05209299 c 5.4599952,-8.3876e-4 5.4694822,-7.2079e-4 5.7574032,0.0715926 0.868659,0.21817005 1.59916,0.81402127 1.984749,1.61891121 0.06302,0.131549 0.127426,0.248587 0.143126,0.2600844 0.0157,0.011497 0.02723,0.030717 0.02563,0.042711 -0.0016,0.011993 -0.0017,0.02565 -3.04e-4,0.030348 0.0826,0.2699028 0.102459,0.9754689 0.120436,4.2796128 0.02294,4.21694 -0.01795,7.142957 -0.103873,7.431663 -0.03076,0.10336 -0.05919,0.210991 -0.06318,0.23918 -0.004,0.02819 -0.01682,0.05894 -0.02852,0.06834 -0.0117,0.0094 -0.07634,0.126763 -0.143635,0.260814 -0.275529,0.548815 -0.822128,1.072733 -1.382019,1.324671 -0.07943,0.03574 -0.144417,0.07893 -0.144417,0.09598 0,0.01705 -0.01266,0.02317 -0.02814,0.0136 -0.01548,-0.0096 -0.126954,0.01511 -0.247722,0.05484 -0.208272,0.06851 -0.315468,0.07353 -2.081766,0.09738 -2.1692487,0.0293 -4.737385,0.02796 -7.4316628,-0.0039 z m 2.1013667,-3.998617 c 0.1977796,-0.08928 0.4275936,-0.312563 0.5324894,-0.517366 l 0.082545,-0.161165 V 7.9819363 c 0,-2.6720699 -0.00836,-3.2872332 -0.045151,-3.3240287 -0.024833,-0.024833 -0.048097,-0.060527 -0.051697,-0.07932 C 6.9070356,4.4859109 6.7197762,4.2435191 6.6038932,4.1632121 6.454706,4.0598252 6.1833492,3.9806378 5.9782541,3.9806378 c -0.3537123,0 -0.7013628,0.2100649 -0.8962199,0.5415342 l -0.093424,0.1589214 -0.011087,3.0830364 c -0.010788,3.0000442 0.00539,3.6291862 0.094062,3.6587452 0.020372,0.0068 0.028842,0.02561 0.018821,0.04183 -0.031624,0.05117 0.3356474,0.402701 0.4961536,0.474892 0.2124707,0.09556 0.6080508,0.09544 0.8200455,-2.48e-4 z m 3.9977221,0 c 0.197341,-0.08908 0.42753,-0.312442 0.531828,-0.51606 l 0.08188,-0.159859 9.8e-4,-3.2637138 c 9e-4,-2.9982813 -0.0037,-3.2735884 -0.05692,-3.38513 -0.03185,-0.066779 -0.07043,-0.1214159 -0.08574,-0.1214159 -0.01531,0 -0.02784,-0.020594 -0.02784,-0.045764 0,-0.050683 -0.251254,-0.2959213 -0.303181,-0.2959213 -0.01804,0 -0.03812,-0.01593 -0.04461,-0.035399 C 10.480595,4.055688 10.225558,3.9837103 10.026129,3.9821382 9.6079645,3.9788382 9.2634893,4.1843788 9.0888141,4.5414024 l -0.089279,0.1824793 0.00286,3.3086139 0.00286,3.3086144 0.083958,0.143264 c 0.1100791,0.187836 0.3616178,0.406608 0.5403085,0.469925 0.2148714,0.07614 0.5889934,0.06892 0.7747984,-0.01495 z"
     id="path7" />
</svg>
