<?xml version="1.0" encoding="UTF-8" standalone="no"?>
<svg
   viewBox="0 0 16.026369 16.022278"
   x="0px"
   y="0px"
   version="1.1"
   id="svg2"
   sodipodi:docname="breakfree-mono.svg"
   width="16.026369"
   height="16.022278"
   inkscape:version="1.4.2 (ebf0e940d0, 2025-05-08)"
   inkscape:export-filename="breakfree-mono.png"
   inkscape:export-xdpi="3066.9456"
   inkscape:export-ydpi="3066.9456"
   xmlns:inkscape="http://www.inkscape.org/namespaces/inkscape"
   xmlns:sodipodi="http://sodipodi.sourceforge.net/DTD/sodipodi-0.dtd"
   xmlns="http://www.w3.org/2000/svg"
   xmlns:svg="http://www.w3.org/2000/svg"
   xmlns:rdf="http://www.w3.org/1999/02/22-rdf-syntax-ns#"
   xmlns:cc="http://creativecommons.org/ns#"
   xmlns:dc="http://purl.org/dc/elements/1.1/">
  <defs
     id="defs2" />
  <sodipodi:namedview
     id="namedview2"
     pagecolor="#ffffff"
     bordercolor="#000000"
     borderopacity="0.25"
     inkscape:showpageshadow="2"
     inkscape:pageopacity="0.0"
     inkscape:pagecheckerboard="0"
     inkscape:deskcolor="#d1d1d1"
     inkscape:zoom="29.266667"
     inkscape:cx="-2.5113895"
     inkscape:cy="10.831435"
     inkscape:window-width="1920"
     inkscape:window-height="1131"
     inkscape:window-x="0"
     inkscape:window-y="0"
     inkscape:window-maximized="1"
     inkscape:current-layer="svg2" />
  <title
     id="title1">_</title>
  <metadata
     id="metadata2">
    <rdf:RDF>
      <cc:Work
         rdf:about="">
        <dc:title>_</dc:title>
      </cc:Work>
    </rdf:RDF>
  </metadata>
  <path
     style="fill:none;fill-opacity:0;stroke:#000000;stroke-width:0.947;stroke-dasharray:none;stroke-opacity:1;paint-order:markers fill stroke"
     d="m 4.5040709,15.525197 c -1.1900032,-0.01406 -1.8506831,-0.03383 -1.9227712,-0.05754 -0.060404,-0.01987 -0.1223191,-0.02841 -0.1375897,-0.01896 -0.01527,0.0095 -0.027765,1.72e-4 -0.027765,-0.02059 0,-0.02076 -0.020911,-0.02972 -0.046469,-0.01992 -0.025558,0.0098 -0.051053,0.0078 -0.056655,-0.0046 C 2.307221,15.391237 2.223123,15.344697 2.1259418,15.30019 1.3971708,14.96635 0.87526528,14.365442 0.56738583,13.505689 L 0.47382229,13.244413 0.4736624,7.9995517 0.47350251,2.7546906 0.56588202,2.4959644 C 0.70470209,2.1071728 0.74753998,2.0163715 0.91230151,1.7616761 1.287334,1.1819352 1.8206668,0.78890885 2.5778153,0.53431691 c 0.1702356,-0.0572419 0.4056798,-0.0599069 5.3598339,-0.0606679 5.1732378,-7.9471e-4 5.1822268,-6.8293e-4 5.4550258,0.0678326 0.823037,0.20671183 1.515173,0.77126909 1.880511,1.53388649 0.05971,0.1246401 0.120733,0.2355313 0.135609,0.2464249 0.01487,0.010893 0.0258,0.029104 0.02428,0.040468 -0.0015,0.011363 -0.0016,0.024303 -2.88e-4,0.028754 0.07826,0.2557276 0.09708,0.9242376 0.11411,4.054849 0.02174,3.995467 -0.01701,6.767811 -0.09842,7.041354 -0.02914,0.09793 -0.05608,0.19991 -0.05986,0.226618 -0.0038,0.02671 -0.01594,0.05585 -0.02702,0.06475 -0.01109,0.0089 -0.07233,0.120106 -0.136091,0.247116 -0.261059,0.519992 -0.778951,1.016394 -1.309436,1.2551 -0.07526,0.03386 -0.136833,0.07479 -0.136833,0.09094 0,0.01615 -0.012,0.02195 -0.02666,0.01289 -0.01467,-0.0091 -0.120286,0.01432 -0.234711,0.05196 -0.197334,0.06491 -0.2989,0.06967 -1.972433,0.09226 -2.0553198,0.02776 -4.4885785,0.02649 -7.0413537,-0.0037 z"
     id="path7"
     sodipodi:nodetypes="cscssccscccsssssssccccccccscsccc"
     inkscape:label="square" />
  <path
     style="fill:#000000;fill-opacity:1;stroke-width:0;stroke-dasharray:none"
     d="M 5.6685978,11.925377 C 5.4609111,11.848864 5.2051118,11.604955 5.1086169,11.391426 l -0.08152,-0.180391 V 7.9991903 c 0,-3.193556 4.097e-4,-3.2127306 0.071947,-3.3673396 0.3604168,-0.7789426 1.3844753,-0.8097977 1.783315,-0.053732 l 0.092346,0.1750575 v 3.2460137 3.2460137 l -0.077444,0.15717 c -0.094546,0.191878 -0.2861777,0.389409 -0.4692532,0.483698 -0.1800993,0.09276 -0.5608351,0.112461 -0.7594107,0.0393 z"
     id="path5"
     inkscape:label="left7" />
  <path
     style="fill:#000000;fill-opacity:1;stroke-width:0;stroke-dasharray:none"
     d="M 9.5751871,11.880208 C 9.4466239,11.809785 9.2170705,11.563699 9.1191789,11.391358 L 9.0419037,11.255313 V 8.0116509 4.7679891 L 9.1238366,4.6068243 C 9.2315008,4.3950451 9.5003811,4.1462402 9.6779864,4.0940491 c 0.2046101,-0.060127 0.5534466,-0.050515 0.7027296,0.019363 0.158487,0.074186 0.440361,0.3385918 0.50202,0.4709095 0.086,0.1845429 0.108312,1.2184726 0.08621,3.9943221 l -0.02175,2.7320733 -0.08135,0.128865 c -0.04474,0.07088 -0.08182,0.140703 -0.0824,0.155171 -0.0017,0.04234 -0.28222,0.241759 -0.422577,0.300404 -0.169068,0.07064 -0.645994,0.06157 -0.7856799,-0.01495 z"
     id="path8"
     inkscape:label="right" />
</svg>
